<svg xmlns="http://www.w3.org/2000/svg" xmlns:xlink="http://www.w3.org/1999/xlink" width="175" zoomAndPan="magnify" viewBox="0 0 131.25 52.499999" height="70" preserveAspectRatio="xMidYMid meet" version="1.0"><defs><g/></defs><path stroke-linecap="round" transform="matrix(0.696492, 0, 0, 0.696492, 0.247643, 3.885766)" fill-opacity="1" fill="#ffffff" fill-rule="nonzero" stroke-linejoin="round" d="M 35.499365 29.501899 L 36.497672 23.999994 L 36.497672 23.001687 L 38.000741 23.001687 L 38.000741 23.999994 L 37.002434 29.501899 Z M 35.499365 29.501899 " stroke="#000000" stroke-width="1" stroke-opacity="1" stroke-miterlimit="4"/><path fill="#efb7dd" d="M 25.667969 17.816406 L 26.714844 17.816406 L 26.714844 18.859375 L 25.667969 18.859375 Z M 25.667969 17.816406 " fill-opacity="1" fill-rule="nonzero"/><path fill="#db7795" d="M 35.769531 21.644531 L 14.875 42.542969 L 14.527344 42.542969 L 13.828125 42.191406 L 13.480469 41.496094 L 12.785156 41.84375 L 12.4375 41.496094 L 12.4375 40.800781 L 12.089844 40.101562 L 11.390625 39.753906 L 11.390625 39.058594 C 11.390625 38.710938 11.042969 39.058594 11.042969 39.058594 L 10.347656 39.058594 L 10.347656 38.015625 L 9.648438 37.316406 L 30.546875 16.421875 L 30.894531 16.421875 L 30.894531 17.117188 L 31.242188 17.117188 C 31.339844 17.117188 31.421875 17.152344 31.488281 17.21875 C 31.558594 17.289062 31.589844 17.371094 31.589844 17.46875 C 31.628906 17.738281 31.742188 17.972656 31.9375 18.164062 L 32.285156 18.164062 L 32.285156 17.816406 L 32.984375 18.164062 L 33.332031 18.511719 L 33.332031 18.859375 L 33.679688 19.207031 L 34.027344 19.207031 L 34.375 20.253906 L 35.070312 20.601562 L 35.421875 20.601562 L 35.070312 21.296875 Z M 35.769531 21.644531 " fill-opacity="1" fill-rule="nonzero"/><path fill="#79a2db" d="M 10.347656 37.664062 L 10 38.015625 L 9.300781 38.015625 L 8.953125 37.316406 L 8.257812 36.621094 L 8.953125 35.574219 L 9.648438 36.273438 L 10 35.925781 L 10.347656 35.226562 C 10.347656 35.226562 10.695312 34.183594 10.695312 34.53125 C 10.695312 34.878906 11.390625 34.878906 11.390625 34.878906 L 11.738281 35.226562 L 11.738281 36.621094 L 10.695312 36.273438 L 10.695312 36.96875 L 10.347656 37.316406 Z M 10.347656 37.664062 " fill-opacity="1" fill-rule="nonzero"/><path fill="#efb7dd" d="M 10.695312 35.226562 L 10.695312 33.835938 C 10.695312 33.835938 11.738281 33.488281 11.390625 33.488281 C 11.042969 33.488281 10.695312 32.441406 10.695312 32.441406 L 10.347656 31.746094 L 11.738281 31.050781 L 12.4375 31.398438 C 12.4375 31.398438 13.132812 31.398438 13.132812 31.050781 C 13.132812 30.699219 13.828125 31.398438 13.828125 31.398438 L 13.480469 32.441406 C 13.480469 32.441406 13.132812 33.136719 13.480469 33.136719 C 13.847656 33.199219 14.195312 33.316406 14.527344 33.488281 L 13.828125 34.53125 L 13.132812 34.878906 L 13.132812 35.574219 L 12.089844 35.226562 Z M 27.0625 18.609375 L 27.0625 17.214844 C 27.0625 17.214844 28.105469 16.867188 27.757812 16.867188 C 27.410156 16.867188 27.0625 15.824219 27.0625 15.824219 L 26.714844 15.128906 L 28.105469 14.429688 L 28.804688 14.777344 C 28.804688 14.777344 29.5 14.777344 29.5 14.429688 C 29.5 14.082031 30.195312 14.777344 30.195312 14.777344 L 30.894531 14.332031 L 31.589844 16.421875 L 30.195312 17.914062 L 29.5 18.261719 L 29.5 18.957031 L 28.457031 18.609375 Z M 27.0625 18.609375 " fill-opacity="1" fill-rule="nonzero"/><path fill="#79a2db" d="M 13.132812 32.441406 L 14.175781 31.398438 L 14.175781 30.351562 L 14.875 30.003906 L 16.613281 30.003906 L 16.613281 32.09375 L 15.570312 32.441406 L 15.222656 32.789062 L 15.222656 33.488281 L 13.132812 33.488281 Z M 16.265625 42.890625 L 15.917969 43.238281 L 15.222656 43.238281 L 14.875 42.542969 L 14.527344 42.191406 L 14.175781 41.84375 L 14.875 40.800781 L 15.570312 41.496094 L 15.917969 41.148438 L 16.265625 40.453125 C 16.265625 40.453125 16.613281 39.40625 16.613281 39.753906 C 16.613281 40.101562 17.3125 40.101562 17.3125 40.101562 L 17.660156 40.453125 L 17.660156 41.84375 L 16.613281 41.496094 L 16.613281 42.191406 L 16.265625 42.542969 Z M 16.265625 42.890625 " fill-opacity="1" fill-rule="nonzero"/><path fill="#efb7dd" d="M 17.3125 39.753906 L 18.355469 38.710938 L 18.355469 37.664062 L 19.054688 37.316406 L 20.792969 37.316406 L 20.792969 39.40625 L 19.75 39.753906 L 19.402344 40.101562 L 19.402344 40.800781 L 17.3125 40.800781 Z M 16.964844 31.050781 L 16.613281 31.398438 L 15.917969 31.398438 L 15.570312 30.699219 L 14.875 30.003906 L 15.570312 28.960938 L 16.265625 29.65625 L 16.613281 29.308594 L 16.964844 28.609375 C 16.964844 28.609375 17.3125 27.566406 17.3125 27.914062 C 17.3125 28.261719 18.007812 28.261719 18.007812 28.261719 L 18.355469 28.609375 L 18.355469 30.003906 L 17.3125 29.65625 L 17.3125 30.351562 L 16.964844 30.699219 Z M 16.964844 31.050781 " fill-opacity="1" fill-rule="nonzero"/><path fill="#79a2db" d="M 26.367188 32.789062 L 26.019531 33.136719 L 25.320312 33.136719 L 24.972656 32.441406 L 24.277344 31.746094 L 24.972656 30.699219 L 25.667969 31.398438 L 26.019531 31.050781 L 26.367188 30.351562 C 26.367188 30.351562 26.714844 29.308594 26.714844 29.65625 C 26.714844 30.003906 27.410156 30.003906 27.410156 30.003906 L 27.757812 30.351562 L 27.757812 31.746094 L 26.714844 31.398438 L 26.714844 32.09375 L 26.367188 32.441406 Z M 24.625 20.601562 L 25.667969 19.558594 L 25.667969 18.511719 L 26.367188 18.164062 L 28.457031 18.164062 L 28.105469 19.558594 L 28.105469 20.253906 L 27.0625 20.601562 L 26.714844 20.949219 L 26.714844 21.644531 L 24.625 21.644531 Z M 24.625 20.601562 " fill-opacity="1" fill-rule="nonzero"/><path fill="#79a2db" d="M 17.3125 28.609375 L 17.3125 26.871094 L 18.007812 26.871094 L 18.007812 26.171875 L 17.660156 25.476562 L 18.007812 24.78125 L 18.007812 23.734375 L 19.28125 22.691406 L 20.097656 23.386719 L 21.140625 23.734375 L 22.1875 23.734375 L 22.1875 24.433594 L 22.882812 25.128906 L 23.230469 23.386719 L 23.230469 22.691406 L 23.582031 21.644531 L 24.277344 21.296875 C 24.273438 21.199219 24.308594 21.117188 24.375 21.050781 C 24.445312 20.980469 24.527344 20.949219 24.625 20.949219 L 25.667969 20.949219 C 25.667969 20.949219 25.320312 22.691406 25.667969 22.34375 C 26.019531 21.996094 26.019531 23.039062 26.019531 23.039062 L 24.625 24.78125 L 24.277344 25.824219 L 24.625 26.523438 L 23.230469 26.523438 C 23.039062 26.714844 22.808594 26.832031 22.535156 26.871094 C 22.1875 26.871094 22.1875 27.566406 22.1875 27.566406 C 22.1875 27.664062 22.15625 27.746094 22.085938 27.816406 C 22.019531 27.882812 21.9375 27.917969 21.839844 27.914062 C 21.566406 27.875 21.335938 27.761719 21.140625 27.566406 L 20.445312 27.914062 L 20.445312 28.609375 L 19.402344 29.308594 L 18.355469 29.308594 L 17.660156 29.65625 Z M 17.3125 28.609375 " fill-opacity="1" fill-rule="nonzero"/><path fill="#efb7dd" d="M 36.117188 20.601562 C 36.117188 20.601562 35.070312 20.601562 35.070312 20.949219 L 35.070312 22.34375 L 34.027344 22.34375 L 33.332031 23.386719 L 32.984375 24.085938 L 32.984375 25.128906 C 32.984375 25.128906 33.332031 24.433594 33.679688 24.433594 C 34.027344 24.433594 34.722656 23.734375 34.722656 23.734375 L 35.421875 23.734375 L 36.117188 23.039062 L 36.117188 22.34375 L 36.8125 21.996094 Z M 36.117188 20.601562 " fill-opacity="1" fill-rule="nonzero"/><path fill="#061a3a" d="M 19.75 25.476562 L 25.320312 25.476562 L 25.320312 43.933594 C 25.320312 44.304688 25.25 44.660156 25.109375 45 C 24.96875 45.339844 24.765625 45.644531 24.503906 45.902344 C 24.242188 46.164062 23.941406 46.367188 23.601562 46.507812 C 23.261719 46.648438 22.90625 46.71875 22.535156 46.71875 C 22.164062 46.71875 21.8125 46.648438 21.46875 46.507812 C 21.128906 46.367188 20.828125 46.164062 20.566406 45.902344 C 20.304688 45.644531 20.101562 45.339844 19.960938 45 C 19.820312 44.660156 19.75 44.304688 19.75 43.933594 Z M 29.847656 7.019531 L 26.019531 16.769531 L 19.054688 16.769531 L 15.222656 7.019531 C 15.628906 6.78125 16.058594 6.59375 16.511719 6.457031 C 16.707031 6.386719 16.929688 6.316406 17.207031 6.253906 C 17.484375 6.191406 17.667969 6.128906 17.902344 6.074219 L 18.601562 5.941406 C 18.835938 5.898438 19.09375 5.855469 19.367188 5.820312 L 20.0625 5.738281 L 20.808594 5.683594 L 24.289062 5.683594 L 25.035156 5.738281 L 25.730469 5.820312 L 26.46875 5.933594 L 27.167969 6.066406 L 27.90625 6.253906 C 28.15625 6.316406 28.378906 6.386719 28.601562 6.457031 C 29.039062 6.597656 29.453125 6.785156 29.847656 7.019531 Z M 29.847656 7.019531 " fill-opacity="1" fill-rule="nonzero"/><path fill="#252a2a" d="M 22.882812 5.632812 L 22.882812 16.777344 C 22.882812 16.875 22.851562 16.957031 22.78125 17.023438 C 22.714844 17.09375 22.632812 17.125 22.535156 17.125 C 22.4375 17.125 22.355469 17.09375 22.289062 17.023438 C 22.222656 16.957031 22.1875 16.875 22.1875 16.777344 L 22.1875 5.632812 Z M 22.882812 5.632812 " fill-opacity="1" fill-rule="nonzero"/><path fill="#252a2a" d="M 22.1875 16.75 C 22.191406 16.851562 22.160156 16.9375 22.09375 17.011719 C 22.023438 17.082031 21.9375 17.121094 21.839844 17.117188 C 21.746094 17.121094 21.667969 17.085938 21.601562 17.023438 C 21.53125 16.960938 21.496094 16.882812 21.492188 16.792969 L 21.492188 16.660156 L 20.792969 5.683594 L 21.492188 5.683594 Z M 22.1875 16.75 " fill-opacity="1" fill-rule="nonzero"/><path fill="#252a2a" d="M 21.492188 16.722656 L 21.492188 16.769531 C 21.488281 16.972656 21.390625 17.085938 21.191406 17.117188 L 21.140625 17.117188 C 20.941406 17.117188 20.824219 17.019531 20.792969 16.820312 L 20.792969 16.582031 L 19.402344 5.820312 L 20.097656 5.738281 L 21.53125 16.660156 Z M 21.492188 16.722656 " fill-opacity="1" fill-rule="nonzero"/><path fill="#252a2a" d="M 20.792969 16.769531 C 20.785156 16.945312 20.695312 17.054688 20.523438 17.089844 L 20.445312 17.089844 C 20.257812 17.089844 20.140625 17 20.105469 16.8125 L 20.105469 16.742188 L 20.050781 16.492188 L 17.910156 6.042969 L 18.605469 5.914062 L 20.792969 16.554688 L 20.792969 16.671875 C 20.800781 16.707031 20.800781 16.738281 20.792969 16.769531 Z M 20.792969 16.769531 " fill-opacity="1" fill-rule="nonzero"/><path fill="#252a2a" d="M 20.097656 16.769531 C 20.085938 16.933594 20 17.039062 19.839844 17.085938 L 19.75 17.117188 C 19.570312 17.121094 19.457031 17.035156 19.414062 16.863281 L 19.414062 16.769531 L 16.511719 6.457031 C 16.707031 6.386719 16.929688 6.316406 17.207031 6.253906 L 20.0625 16.519531 L 20.113281 16.679688 C 20.109375 16.710938 20.105469 16.742188 20.097656 16.769531 Z M 24.277344 5.683594 L 23.582031 16.660156 L 23.582031 16.792969 C 23.574219 16.882812 23.539062 16.960938 23.472656 17.023438 C 23.402344 17.085938 23.324219 17.121094 23.230469 17.117188 C 23.140625 17.113281 23.0625 17.078125 23 17.011719 C 22.9375 16.945312 22.90625 16.867188 22.90625 16.777344 L 23.601562 5.675781 Z M 24.277344 5.683594 " fill-opacity="1" fill-rule="nonzero"/><path fill="#252a2a" d="M 25.726562 5.820312 L 24.332031 16.582031 L 24.332031 16.820312 C 24.316406 16.917969 24.269531 16.996094 24.191406 17.054688 C 24.113281 17.113281 24.027344 17.132812 23.929688 17.117188 L 23.878906 17.117188 C 23.679688 17.085938 23.582031 16.972656 23.582031 16.769531 L 23.582031 16.660156 L 25.023438 5.738281 Z M 25.726562 5.820312 " fill-opacity="1" fill-rule="nonzero"/><path fill="#252a2a" d="M 27.144531 6.066406 L 25.058594 16.511719 L 25.007812 16.757812 L 25.007812 16.828125 C 24.992188 16.917969 24.949219 16.992188 24.875 17.050781 C 24.800781 17.105469 24.71875 17.128906 24.625 17.117188 L 24.554688 17.117188 C 24.371094 17.085938 24.28125 16.976562 24.285156 16.792969 C 24.28125 16.769531 24.28125 16.746094 24.285156 16.722656 L 24.285156 16.605469 L 26.464844 5.933594 Z M 27.144531 6.066406 " fill-opacity="1" fill-rule="nonzero"/><path fill="#252a2a" d="M 28.558594 6.457031 L 25.683594 16.769531 L 25.683594 16.863281 C 25.636719 17.050781 25.515625 17.136719 25.320312 17.117188 L 25.230469 17.117188 C 25.070312 17.074219 24.984375 16.96875 24.972656 16.804688 C 24.96875 16.777344 24.96875 16.746094 24.972656 16.714844 L 25.015625 16.5625 L 27.890625 6.253906 C 28.105469 6.316406 28.363281 6.386719 28.558594 6.457031 Z M 28.558594 6.457031 " fill-opacity="1" fill-rule="nonzero"/><path fill="#c5c3ce" d="M 19.75 25.476562 L 19.054688 19.558594 L 19.054688 16.769531 L 26.019531 16.769531 L 26.019531 19.558594 L 25.320312 25.476562 Z M 19.75 25.476562 " fill-opacity="1" fill-rule="nonzero"/><path fill="#dfdce8" d="M 23.230469 24.433594 L 23.929688 20.601562 L 23.929688 19.90625 L 24.972656 19.90625 L 24.972656 20.601562 L 24.277344 24.433594 Z M 23.929688 17.816406 L 24.972656 17.816406 L 24.972656 18.859375 L 23.929688 18.859375 Z M 23.929688 17.816406 " fill-opacity="1" fill-rule="nonzero"/><g fill="#061a3a" fill-opacity="1"><g transform="translate(28.064528, 43.03422)"><g><path d="M 0.71875 -0.277344 L 0.835938 -0.0898438 L 1.023438 0.0195312 L 1.222656 0.0117188 L 1.617188 0.03125 L 1.824219 0.0117188 L 2.234375 0.0195312 L 2.441406 -0.0976562 L 2.523438 -0.285156 L 2.542969 -0.472656 L 2.523438 -0.691406 L 2.523438 -2.433594 L 2.609375 -2.640625 L 2.816406 -2.769531 L 3.980469 -2.777344 L 4.1875 -2.75 L 4.363281 -2.75 L 4.550781 -2.640625 L 4.648438 -2.453125 L 4.660156 -0.277344 L 4.769531 -0.117188 L 5.054688 0.0117188 L 5.566406 0.0117188 L 5.761719 -0.0117188 L 6.167969 0.0195312 L 6.355469 -0.109375 L 6.472656 -0.277344 L 6.453125 -1.171875 L 6.480469 -1.488281 L 6.453125 -1.644531 L 6.460938 -6.589844 L 6.375 -6.796875 L 6.175781 -6.875 L 5.042969 -6.886719 L 4.757812 -6.816406 L 4.660156 -6.582031 L 4.648438 -6.207031 L 4.667969 -6.039062 L 4.648438 -5.636719 L 4.679688 -5.449219 L 4.667969 -4.679688 L 4.5625 -4.480469 L 4.363281 -4.375 L 4.175781 -4.402344 L 3.792969 -4.363281 L 3.585938 -4.382812 L 3.410156 -4.363281 L 2.828125 -4.375 L 2.640625 -4.460938 L 2.542969 -4.648438 L 2.53125 -4.867188 L 2.53125 -5.074219 L 2.523438 -5.25 L 2.53125 -6.019531 L 2.550781 -6.234375 L 2.53125 -6.601562 L 2.441406 -6.789062 L 2.234375 -6.894531 L 2.019531 -6.875 L 1.042969 -6.894531 L 0.828125 -6.796875 L 0.730469 -6.601562 L 0.710938 -6.382812 L 0.730469 -5.613281 L 0.710938 -5.417969 L 0.75 -5.015625 L 0.730469 -4.640625 L 0.738281 -4.402344 L 0.71875 -4.207031 L 0.71875 -1.261719 L 0.75 -1.082031 Z M 0.71875 -0.277344 "/></g></g></g><g fill="#061a3a" fill-opacity="1"><g transform="translate(35.270213, 43.03422)"><g><path d="M 3.390625 0.128906 L 3.683594 0.0976562 L 3.871094 0.109375 L 4.640625 -0.0898438 L 4.996094 -0.277344 L 5.320312 -0.492188 L 5.59375 -0.769531 L 5.820312 -1.113281 L 5.882812 -1.308594 L 5.980469 -1.476562 L 6.066406 -1.890625 L 6.117188 -2.363281 L 6.117188 -5.023438 L 6.097656 -5.210938 L 6.117188 -5.429688 L 6.097656 -5.585938 L 6.097656 -6.402344 L 6.128906 -6.601562 L 6 -6.808594 L 5.78125 -6.875 L 5.160156 -6.855469 L 4.75 -6.886719 L 4.542969 -6.789062 L 4.433594 -6.570312 L 4.453125 -2.6875 L 4.382812 -2.078125 L 4.324219 -1.929688 L 4.214844 -1.734375 L 4.050781 -1.617188 L 3.703125 -1.488281 L 3.113281 -1.488281 L 2.886719 -1.535156 L 2.71875 -1.636719 L 2.5625 -1.753906 L 2.441406 -1.910156 L 2.382812 -2.097656 L 2.324219 -2.667969 L 2.355469 -5.839844 L 2.335938 -5.988281 L 2.355469 -6.304688 L 2.335938 -6.589844 L 2.214844 -6.808594 L 2.007812 -6.894531 L 1.824219 -6.894531 L 1.625 -6.867188 L 1.203125 -6.90625 L 0.996094 -6.875 L 0.789062 -6.796875 L 0.660156 -6.609375 L 0.679688 -6.414062 L 0.679688 -6.175781 L 0.660156 -6.019531 L 0.691406 -4.640625 L 0.660156 -4.441406 L 0.679688 -4.253906 L 0.648438 -2.667969 L 0.710938 -1.882812 L 0.808594 -1.476562 L 0.964844 -1.144531 L 1.191406 -0.789062 L 1.308594 -0.648438 L 1.457031 -0.523438 L 1.773438 -0.316406 L 1.96875 -0.226562 L 2.117188 -0.136719 L 2.492188 0.03125 L 2.875 0.109375 L 3.074219 0.109375 Z M 3.390625 0.128906 "/></g></g></g><g fill="#061a3a" fill-opacity="1"><g transform="translate(42.062458, 43.03422)"><g><path d="M 5.8125 -0.167969 L 6.078125 -0.0117188 L 6.355469 0.0195312 L 6.570312 -0.0507812 L 6.667969 -0.246094 L 6.6875 -3.84375 L 6.660156 -4.007812 L 6.660156 -4.984375 L 6.6875 -5.222656 L 6.660156 -6.589844 L 6.5625 -6.789062 L 6.363281 -6.894531 L 5.140625 -6.886719 L 4.957031 -6.777344 L 4.847656 -6.570312 L 4.835938 -6.363281 L 4.867188 -6.207031 L 4.835938 -5.792969 L 4.855469 -5.574219 L 4.835938 -3.8125 L 4.777344 -3.644531 L 4.628906 -3.714844 L 3.929688 -4.414062 L 3.65625 -4.628906 L 1.714844 -6.589844 L 1.566406 -6.707031 L 1.339844 -6.828125 L 1.042969 -6.894531 L 0.816406 -6.796875 L 0.730469 -6.609375 L 0.730469 -3.625 L 0.71875 -3.457031 L 0.738281 -3.054688 L 0.710938 -2.886719 L 0.730469 -1.269531 L 0.710938 -1.082031 L 0.730469 -0.257812 L 0.816406 -0.0703125 L 1.023438 0 L 1.429688 0.0195312 L 1.644531 0 L 2.03125 0.03125 L 2.234375 0.0195312 L 2.433594 -0.078125 L 2.53125 -0.382812 L 2.542969 -2.875 L 2.5625 -3.074219 L 2.628906 -3.242188 L 2.757812 -3.191406 L 2.886719 -3.023438 L 3.585938 -2.355469 L 3.714844 -2.207031 L 3.882812 -2.097656 L 5.410156 -0.582031 L 5.664062 -0.296875 Z M 5.8125 -0.167969 "/></g></g></g><g fill="#061a3a" fill-opacity="1"><g transform="translate(49.484708, 43.03422)"><g><path d="M 2.570312 0.0195312 L 3.230469 0 L 3.515625 -0.0976562 L 3.617188 -0.375 L 3.644531 -0.886719 L 3.617188 -1.261719 L 3.636719 -1.46875 L 3.625 -1.863281 L 3.644531 -2.039062 L 3.617188 -2.257812 L 3.636719 -3.84375 L 3.605469 -4.050781 L 3.636719 -4.90625 L 3.714844 -5.203125 L 3.902344 -5.320312 L 4.285156 -5.339844 L 4.648438 -5.289062 L 4.855469 -5.320312 L 5.035156 -5.308594 L 5.203125 -5.417969 L 5.320312 -5.636719 L 5.328125 -6.570312 L 5.222656 -6.769531 L 5.035156 -6.894531 L 4.421875 -6.894531 L 4.234375 -6.914062 L 4.027344 -6.886719 L 3.84375 -6.90625 L 3.042969 -6.867188 L 2.847656 -6.90625 L 2.660156 -6.914062 L 2.453125 -6.886719 L 2.234375 -6.90625 L 2.058594 -6.867188 L 1.476562 -6.894531 L 1.171875 -6.867188 L 0.484375 -6.90625 L 0.296875 -6.808594 L 0.175781 -6.582031 L 0.1875 -6.382812 L 0.167969 -5.890625 L 0.1875 -5.585938 L 0.277344 -5.410156 L 0.453125 -5.308594 L 0.648438 -5.328125 L 1.585938 -5.308594 L 1.773438 -5.210938 L 1.882812 -5.015625 L 1.863281 -4.699219 L 1.882812 -4.421875 L 1.871094 -4.207031 L 1.882812 -4.007812 L 1.863281 -3.734375 L 1.890625 -2.265625 L 1.871094 -2.070312 L 1.863281 -1.269531 L 1.882812 -1.0625 L 1.871094 -0.492188 L 1.851562 -0.304688 L 1.980469 -0.0898438 L 2.265625 0.0117188 Z M 2.570312 0.0195312 "/></g></g></g><g fill="#061a3a" fill-opacity="1"><g transform="translate(54.987412, 43.03422)"><g><path d="M 3.429688 0.03125 L 4.835938 0.0117188 L 5.042969 -0.078125 L 5.152344 -0.285156 L 5.152344 -1.28125 L 5.042969 -1.476562 L 4.835938 -1.566406 L 4.609375 -1.546875 L 4.421875 -1.578125 L 3.921875 -1.585938 L 3.59375 -1.546875 L 3.398438 -1.566406 L 3.183594 -1.554688 L 2.996094 -1.585938 L 2.777344 -1.566406 L 2.570312 -1.664062 L 2.492188 -1.84375 L 2.492188 -2.460938 L 2.582031 -2.667969 L 2.757812 -2.777344 L 3.054688 -2.789062 L 3.367188 -2.757812 L 3.742188 -2.777344 L 4.148438 -2.769531 L 4.34375 -2.789062 L 4.570312 -2.777344 L 4.769531 -2.855469 L 4.835938 -3.054688 L 4.867188 -3.941406 L 4.769531 -4.214844 L 4.542969 -4.34375 L 3.960938 -4.34375 L 3.753906 -4.324219 L 3.339844 -4.355469 L 2.769531 -4.335938 L 2.5625 -4.421875 L 2.484375 -4.730469 L 2.484375 -5.035156 L 2.570312 -5.222656 L 2.789062 -5.300781 L 2.976562 -5.289062 L 3.164062 -5.328125 L 4.570312 -5.308594 L 4.757812 -5.320312 L 4.964844 -5.4375 L 5.0625 -5.613281 L 5.054688 -5.8125 L 5.0625 -6.007812 L 5.042969 -6.601562 L 4.957031 -6.789062 L 4.757812 -6.867188 L 4.550781 -6.867188 L 4.375 -6.90625 L 3.574219 -6.894531 L 3.359375 -6.875 L 3.164062 -6.894531 L 2.996094 -6.886719 L 2.796875 -6.90625 L 1.988281 -6.886719 L 1.792969 -6.914062 L 1.605469 -6.875 L 1.429688 -6.894531 L 1.230469 -6.875 L 1.035156 -6.886719 L 0.828125 -6.808594 L 0.71875 -6.601562 L 0.738281 -6.226562 L 0.710938 -5.820312 L 0.738281 -5.605469 L 0.71875 -4.640625 L 0.75 -4.433594 L 0.730469 -4.246094 L 0.71875 -3.4375 L 0.75 -3.261719 L 0.738281 -1.664062 L 0.71875 -1.476562 L 0.75 -1.28125 L 0.71875 -0.601562 L 0.738281 -0.382812 L 0.816406 -0.117188 L 1.113281 0.0117188 L 1.824219 0.0195312 L 2.039062 0 L 2.214844 0.0117188 L 2.621094 -0.0195312 L 2.808594 0.0195312 L 3.035156 0.03125 L 3.230469 0.0117188 Z M 3.429688 0.03125 "/></g></g></g><g fill="#061a3a" fill-opacity="1"><g transform="translate(60.627929, 43.03422)"><g><path d="M 0.738281 -0.402344 L 0.835938 -0.0976562 L 1.121094 0.03125 L 1.320312 0 L 1.636719 0.03125 L 1.792969 0.0117188 L 2.089844 0.0117188 L 2.402344 -0.0898438 L 2.492188 -0.375 L 2.492188 -0.710938 L 2.511719 -0.886719 L 2.484375 -1.09375 L 2.503906 -1.722656 L 2.589844 -1.921875 L 2.777344 -2.03125 L 3.347656 -1.949219 L 3.546875 -1.78125 L 3.664062 -1.585938 L 3.742188 -1.410156 L 3.949219 -1.113281 L 4.136719 -0.757812 L 4.246094 -0.609375 L 4.324219 -0.414062 L 4.433594 -0.246094 L 4.648438 -0.0703125 L 4.984375 0.0195312 L 5.761719 0.0117188 L 5.949219 0.03125 L 6.273438 0.0195312 L 6.460938 -0.0703125 L 6.519531 -0.285156 L 6.414062 -0.503906 L 6.292969 -0.640625 L 6.214844 -0.828125 L 5.882812 -1.328125 L 5.792969 -1.507812 L 5.476562 -2.019531 L 5.359375 -2.167969 L 5.347656 -2.402344 L 5.4375 -2.621094 L 5.574219 -2.769531 L 5.714844 -2.886719 L 6.097656 -3.574219 L 6.226562 -4.148438 L 6.207031 -4.769531 L 6.175781 -4.964844 L 6 -5.527344 L 5.921875 -5.695312 L 5.8125 -5.851562 L 5.25 -6.441406 L 4.90625 -6.628906 L 4.53125 -6.757812 L 3.96875 -6.886719 L 3.65625 -6.894531 L 3.367188 -6.875 L 2.777344 -6.875 L 2.582031 -6.914062 L 2.382812 -6.914062 L 2.207031 -6.867188 L 2.007812 -6.867188 L 1.8125 -6.90625 L 1.597656 -6.914062 L 1.015625 -6.867188 L 0.835938 -6.769531 L 0.71875 -6.492188 L 0.730469 -4.234375 L 0.75 -4.039062 L 0.71875 -3.644531 L 0.730469 -3.429688 L 0.730469 -3.230469 L 0.75 -3.042969 L 0.730469 -2.855469 L 0.71875 -2.058594 L 0.738281 -1.863281 Z M 2.777344 -3.605469 L 2.582031 -3.714844 L 2.503906 -3.871094 L 2.503906 -4.460938 L 2.484375 -4.628906 L 2.503906 -5.042969 L 2.589844 -5.230469 L 2.796875 -5.308594 L 2.996094 -5.300781 L 3.390625 -5.339844 L 3.664062 -5.28125 L 3.921875 -5.261719 L 4.109375 -5.210938 L 4.355469 -4.90625 L 4.414062 -4.75 L 4.453125 -4.492188 L 4.421875 -4.195312 L 4.335938 -4 L 4.226562 -3.851562 L 4.117188 -3.761719 L 3.941406 -3.683594 L 3.65625 -3.617188 L 3.46875 -3.605469 L 2.996094 -3.625 Z M 2.777344 -3.605469 "/></g></g></g><g fill="#f3a6c9" fill-opacity="1"><g transform="translate(28.705966, 33.833927)"><g><path d="M 31.113281 -26.640625 C 30.269531 -26.640625 29.660156 -26.378906 29.082031 -25.738281 C 26.464844 -22.804688 21.671875 -18.039062 18.914062 -12.027344 C 18.914062 -16.675781 19.433594 -21.527344 17.632812 -24.171875 C 16.472656 -25.914062 14.785156 -26.640625 12.898438 -26.640625 C 10.34375 -26.640625 7.523438 -25.214844 5.578125 -22.484375 C 4.53125 -21.03125 3.835938 -19.289062 3.691406 -17.429688 C 3.195312 -11.359375 10.808594 -11.621094 10.921875 -18.1875 C 10.921875 -18.503906 10.75 -18.59375 10.515625 -18.417969 C 9.933594 -18.011719 9.210938 -17.808594 8.511719 -17.78125 C 6.476562 -17.722656 5.753906 -19.550781 6.796875 -21.121094 C 7.613281 -22.398438 9.441406 -23.300781 11.214844 -23.066406 C 12.085938 -22.949219 12.78125 -22.601562 13.363281 -22.109375 C 12.722656 -18.503906 10.605469 -9.933594 7.40625 -7.929688 C 5.054688 -6.449219 2.035156 -7.175781 1.511719 -9.964844 C 1.367188 -10.632812 0.929688 -10.429688 0.640625 -9.964844 C -1.367188 -6.625 -1.570312 0 3.863281 0 C 10.980469 0 14.0625 -13.480469 14.757812 -20.015625 C 16.792969 -14.875 14.292969 -4.765625 11.941406 -0.8125 C 11.707031 -0.40625 11.503906 0 12.171875 0 L 18.476562 0 C 19.203125 0 19.320312 -0.347656 19.347656 -0.957031 C 19.523438 -10.140625 23.9375 -15.601562 29.777344 -22.339844 C 27.511719 -15.949219 21.933594 -7.960938 22.371094 -2.761719 C 22.515625 -1.046875 23.707031 0 25.128906 0 C 28.46875 0 31.347656 -4.125 31.984375 -7.261719 C 32.101562 -7.757812 32.160156 -8.222656 32.101562 -8.484375 C 32.042969 -8.746094 31.753906 -8.859375 31.519531 -8.542969 C 30.824219 -7.582031 30.125 -7.234375 29.546875 -7.203125 C 28.355469 -7.175781 27.597656 -8.859375 28.179688 -11.328125 C 29.601562 -17.167969 33.84375 -21.613281 37.707031 -26 C 38.027344 -26.378906 37.824219 -26.640625 37.359375 -26.640625 Z M 31.113281 -26.640625 "/></g></g></g><g fill="#f3a6c9" fill-opacity="1"><g transform="translate(60.226411, 33.833927)"><g><path d="M 14.640625 -8.542969 C 13.972656 -7.699219 12.957031 -7.203125 12.085938 -7.203125 C 11.039062 -7.203125 10.195312 -7.84375 10.488281 -9.179688 C 10.953125 -11.386719 13.421875 -12.375 14.527344 -13.945312 C 14.757812 -14.292969 14.527344 -14.527344 14.234375 -14.527344 C 14.03125 -14.527344 13.886719 -14.410156 13.710938 -14.292969 C 12.492188 -13.480469 10.34375 -14.527344 9.324219 -14.527344 C 8.917969 -14.527344 8.832031 -14.234375 8.859375 -13.914062 C 8.890625 -12.636719 8.714844 -11.648438 8.425781 -10.777344 C 6.625 -5.578125 2.121094 -6.652344 3.574219 -9.90625 C 4.359375 -11.648438 6.304688 -12.578125 7.261719 -13.945312 C 7.496094 -14.292969 7.261719 -14.527344 7 -14.527344 C 6.769531 -14.527344 6.625 -14.410156 6.449219 -14.292969 C 5.230469 -13.480469 3.050781 -14.527344 2.003906 -14.527344 C 1.625 -14.527344 1.539062 -14.234375 1.539062 -13.914062 C 1.683594 -8.65625 -1.570312 -8.019531 -2.207031 -3.835938 C -2.554688 -1.480469 -1.21875 0 0.492188 0 C 2.0625 0 3.660156 -0.902344 4.996094 -2.207031 C 5.316406 -0.8125 6.390625 0 7.640625 0 C 10.980469 0 14.46875 -4.125 15.105469 -7.234375 C 15.222656 -7.757812 15.25 -8.222656 15.195312 -8.484375 C 15.136719 -8.746094 14.875 -8.832031 14.640625 -8.542969 Z M 14.640625 -8.542969 "/></g></g></g><g fill="#f3a6c9" fill-opacity="1"><g transform="translate(74.868171, 33.833927)"><g><path d="M -0.929688 -4.210938 C -0.871094 -1.367188 0.523438 0 2.238281 0 C 3.660156 0 4.851562 -0.871094 5.898438 -2.035156 C 6.070312 -0.785156 6.886719 0 8.078125 0 C 11.417969 0 14.875 -4.097656 15.542969 -7.234375 C 15.628906 -7.757812 15.6875 -8.191406 15.628906 -8.484375 C 15.542969 -8.714844 15.308594 -8.832031 15.078125 -8.511719 C 14.410156 -7.667969 13.363281 -7.203125 12.492188 -7.203125 C 11.445312 -7.203125 10.632812 -7.84375 10.894531 -9.152344 C 11.386719 -11.386719 13.855469 -12.375 14.960938 -13.914062 C 15.195312 -14.292969 14.960938 -14.527344 14.671875 -14.527344 C 14.496094 -14.527344 14.320312 -14.410156 14.175781 -14.292969 C 13.015625 -13.566406 11.941406 -14.527344 10.894531 -14.527344 C 10.515625 -14.527344 10.429688 -14.207031 10.429688 -13.886719 C 10.457031 -12.898438 10.371094 -12.085938 10.195312 -11.386719 C 10.109375 -11.097656 9.90625 -11.011719 9.878906 -11.386719 C 9.820312 -13.160156 8.949219 -14.527344 7.03125 -14.527344 C 2.46875 -14.527344 -0.957031 -8.511719 -0.929688 -4.210938 Z M 4.96875 -10.253906 C 6.914062 -10.253906 8.511719 -9.382812 8.511719 -8.28125 C 8.511719 -7.175781 6.914062 -6.273438 4.96875 -6.273438 C 3.019531 -6.273438 1.480469 -7.175781 1.480469 -8.28125 C 1.480469 -9.382812 3.019531 -10.253906 4.96875 -10.253906 Z M 4.96875 -10.253906 "/></g></g></g><g fill="#e54246" fill-opacity="1"><g transform="translate(28.064, 33.191965)"><g><path d="M 31.113281 -26.640625 C 30.269531 -26.640625 29.660156 -26.378906 29.082031 -25.738281 C 26.464844 -22.804688 21.671875 -18.039062 18.914062 -12.027344 C 18.914062 -16.675781 19.433594 -21.527344 17.632812 -24.171875 C 16.472656 -25.914062 14.785156 -26.640625 12.898438 -26.640625 C 10.34375 -26.640625 7.523438 -25.214844 5.578125 -22.484375 C 4.53125 -21.03125 3.835938 -19.289062 3.691406 -17.429688 C 3.195312 -11.359375 10.808594 -11.621094 10.921875 -18.1875 C 10.921875 -18.503906 10.75 -18.59375 10.515625 -18.417969 C 9.933594 -18.011719 9.210938 -17.808594 8.511719 -17.78125 C 6.476562 -17.722656 5.753906 -19.550781 6.796875 -21.121094 C 7.613281 -22.398438 9.441406 -23.300781 11.214844 -23.066406 C 12.085938 -22.949219 12.78125 -22.601562 13.363281 -22.109375 C 12.722656 -18.503906 10.605469 -9.933594 7.40625 -7.929688 C 5.054688 -6.449219 2.035156 -7.175781 1.511719 -9.964844 C 1.367188 -10.632812 0.929688 -10.429688 0.640625 -9.964844 C -1.367188 -6.625 -1.570312 0 3.863281 0 C 10.980469 0 14.0625 -13.480469 14.757812 -20.015625 C 16.792969 -14.875 14.292969 -4.765625 11.941406 -0.8125 C 11.707031 -0.40625 11.503906 0 12.171875 0 L 18.476562 0 C 19.203125 0 19.320312 -0.347656 19.347656 -0.957031 C 19.523438 -10.140625 23.9375 -15.601562 29.777344 -22.339844 C 27.511719 -15.949219 21.933594 -7.960938 22.371094 -2.761719 C 22.515625 -1.046875 23.707031 0 25.128906 0 C 28.46875 0 31.347656 -4.125 31.984375 -7.261719 C 32.101562 -7.757812 32.160156 -8.222656 32.101562 -8.484375 C 32.042969 -8.746094 31.753906 -8.859375 31.519531 -8.542969 C 30.824219 -7.582031 30.125 -7.234375 29.546875 -7.203125 C 28.355469 -7.175781 27.597656 -8.859375 28.179688 -11.328125 C 29.601562 -17.167969 33.84375 -21.613281 37.707031 -26 C 38.027344 -26.378906 37.824219 -26.640625 37.359375 -26.640625 Z M 31.113281 -26.640625 "/></g></g></g><g fill="#e54246" fill-opacity="1"><g transform="translate(59.584448, 33.191965)"><g><path d="M 14.640625 -8.542969 C 13.972656 -7.699219 12.957031 -7.203125 12.085938 -7.203125 C 11.039062 -7.203125 10.195312 -7.84375 10.488281 -9.179688 C 10.953125 -11.386719 13.421875 -12.375 14.527344 -13.945312 C 14.757812 -14.292969 14.527344 -14.527344 14.234375 -14.527344 C 14.03125 -14.527344 13.886719 -14.410156 13.710938 -14.292969 C 12.492188 -13.480469 10.34375 -14.527344 9.324219 -14.527344 C 8.917969 -14.527344 8.832031 -14.234375 8.859375 -13.914062 C 8.890625 -12.636719 8.714844 -11.648438 8.425781 -10.777344 C 6.625 -5.578125 2.121094 -6.652344 3.574219 -9.90625 C 4.359375 -11.648438 6.304688 -12.578125 7.261719 -13.945312 C 7.496094 -14.292969 7.261719 -14.527344 7 -14.527344 C 6.769531 -14.527344 6.625 -14.410156 6.449219 -14.292969 C 5.230469 -13.480469 3.050781 -14.527344 2.003906 -14.527344 C 1.625 -14.527344 1.539062 -14.234375 1.539062 -13.914062 C 1.683594 -8.65625 -1.570312 -8.019531 -2.207031 -3.835938 C -2.554688 -1.480469 -1.21875 0 0.492188 0 C 2.0625 0 3.660156 -0.902344 4.996094 -2.207031 C 5.316406 -0.8125 6.390625 0 7.640625 0 C 10.980469 0 14.46875 -4.125 15.105469 -7.234375 C 15.222656 -7.757812 15.25 -8.222656 15.195312 -8.484375 C 15.136719 -8.746094 14.875 -8.832031 14.640625 -8.542969 Z M 14.640625 -8.542969 "/></g></g></g><g fill="#e54246" fill-opacity="1"><g transform="translate(74.226208, 33.191965)"><g><path d="M -0.929688 -4.210938 C -0.871094 -1.367188 0.523438 0 2.238281 0 C 3.660156 0 4.851562 -0.871094 5.898438 -2.035156 C 6.070312 -0.785156 6.886719 0 8.078125 0 C 11.417969 0 14.875 -4.097656 15.542969 -7.234375 C 15.628906 -7.757812 15.6875 -8.191406 15.628906 -8.484375 C 15.542969 -8.714844 15.308594 -8.832031 15.078125 -8.511719 C 14.410156 -7.667969 13.363281 -7.203125 12.492188 -7.203125 C 11.445312 -7.203125 10.632812 -7.84375 10.894531 -9.152344 C 11.386719 -11.386719 13.855469 -12.375 14.960938 -13.914062 C 15.195312 -14.292969 14.960938 -14.527344 14.671875 -14.527344 C 14.496094 -14.527344 14.320312 -14.410156 14.175781 -14.292969 C 13.015625 -13.566406 11.941406 -14.527344 10.894531 -14.527344 C 10.515625 -14.527344 10.429688 -14.207031 10.429688 -13.886719 C 10.457031 -12.898438 10.371094 -12.085938 10.195312 -11.386719 C 10.109375 -11.097656 9.90625 -11.011719 9.878906 -11.386719 C 9.820312 -13.160156 8.949219 -14.527344 7.03125 -14.527344 C 2.46875 -14.527344 -0.957031 -8.511719 -0.929688 -4.210938 Z M 4.96875 -10.253906 C 6.914062 -10.253906 8.511719 -9.382812 8.511719 -8.28125 C 8.511719 -7.175781 6.914062 -6.273438 4.96875 -6.273438 C 3.019531 -6.273438 1.480469 -7.175781 1.480469 -8.28125 C 1.480469 -9.382812 3.019531 -10.253906 4.96875 -10.253906 Z M 4.96875 -10.253906 "/></g></g></g></svg>